<svg xmlns="http://www.w3.org/2000/svg" width="300" height="300" fill="none"><path fill="#050A30" d="M0 0h300v300H0z"></path><path fill="#fff" stroke="#fff" stroke-width=".361" d="m205.747 181.805.181-19.323h5.417v2.348c6.501-5.023 10.705-2.19 12.811 1.084.87 1.353 1.106 2.99 1.127 4.599l.148 11.292h-5.778v-10.981c0-.616-.128-1.237-.467-1.753-2.324-3.543-5.942-2.138-7.413.021-.336.494-.428 1.101-.428 1.699v11.014h-5.598zm-10.835.157v-19.504h5.418v19.504h-5.418z"></path><path fill="#24FEEE" d="M163.399 163.234c-.635 3.828-2.88 7.636-5.894 9.996-2.052 1.607-4.351 2.388-6.845 2.898-4.464.913-9.471-.954-12.76-3.959-2.585-2.361-6.476-7.702-6.476-7.702l-5.277 6.699c5.314 9.407 14.44 16.257 25.718 14.205 11.277-2.052 19.902-11.442 20.507-21.98.44-7.658-2.304-15.506-8.654-20.087-8.902-6.419-20.612-7.043-29.848-1.061-6.07 3.932-9.324 10.645-13.341 16.482 0 0-1.166 1.673-1.803 1.137-.938-.79-.04-2.626.441-3.467 1.171-2.05 2.652-3.897 3.845-5.932l-.12-.172c-2.439-3.524-4.916-7.103-8.575-9.46-4.224-2.722-8.197-3.651-13.725-3.503-4.073.108-7.721 1.182-11.315 3.083l2.141-14.689s19.703-.249 29.521-.275l-.118-11.387-39.6.002-5.033 38.653 12.468.637s2.631-3.83 6.969-4.715c1.343-.274 3.582-.3 5.034-.059 1.815.303 4.115 1.557 5.216 2.846 1.572 1.838 2.309 3.297 2.988 5.911.455 1.755.498 6.201.075 7.888-1.063 4.24-2.948 6.874-6.013 8.403-1.597.797-3.66 1.263-6.025.965-4.857-.612-7.241-4.191-9.294-8.453 0 0-9.505-.945-12.306-1.374-1.3 10.425 8.043 18.832 17.096 20.459 10.917 1.961 21.078.423 29.099-11.701 6.744-9.055 9.773-18.265 16.884-23.822 3.4-2.659 6.305-3.611 10.512-3.448 2.563.099 3.375.258 5.376 1.055 4.849 1.929 8.289 6.173 9.146 11.281.286 1.703.282 2.858-.014 4.646z"></path><circle cx="197.801" cy="157.041" r="3.251" fill="#fff"></circle><path fill="#fff" stroke="#fff" stroke-width=".361" d="M175.047 181.962V156.86h15.711v4.335h-10.293v6.14h7.584v3.973h-7.584v10.654h-5.418z"></path></svg>